# xmcd
#
# Track frame offsets:
# 150
# 17744
# 33669
# 48878
# 66359
# 81468
# 99255
# 113776
# 143392
# 161354
# 173452
# 197654
# 217317
# 237564
# 257489
# 275928
# 290386
# 302630
# 325457
#
# Disc length: 4591 seconds
#
# Revision: 0
# Processed by: cddbd v1.5PL3 Copyright (c) Steve Scherf et al.
# Submitted via: Audion 3.0.2 (http://www.panic.com/audion/)
#
DISCID=1411ed13
DTITLE=Various Artist - bhangra knigths
DYEAR=1900
DGENRE=
TTITLE0=a
TTITLE1=b
TTITLE2=c
TTITLE3=d
TTITLE4=e
TTITLE5=f
TTITLE6=g
TTITLE7=h
TTITLE8=i
TTITLE9=j
TTITLE10=k
TTITLE11=l
TTITLE12=m
TTITLE13=n
TTITLE14=o
TTITLE15=p
TTITLE16=q
TTITLE17=r
TTITLE18=s
EXTD=
EXTT0=
EXTT1=
EXTT2=
EXTT3=
EXTT4=
EXTT5=
EXTT6=
EXTT7=
EXTT8=
EXTT9=
EXTT10=
EXTT11=
EXTT12=
EXTT13=
EXTT14=
EXTT15=
EXTT16=
EXTT17=
EXTT18=
PLAYORDER=
